<?xml version="1.0" encoding="UTF-8" standalone="no"?><svg xmlns="http://www.w3.org/2000/svg" xmlns:xlink="http://www.w3.org/1999/xlink" contentScriptType="application/ecmascript" contentStyleType="text/css" height="660px" preserveAspectRatio="none" style="width:1050px;height:660px;" version="1.1" viewBox="0 0 1050 660" width="1050px" zoomAndPan="magnify"><defs><filter height="300%" id="f18vu36wnsl6ez" width="300%" x="-1" y="-1"><feGaussianBlur result="blurOut" stdDeviation="4.0"/><feColorMatrix in="blurOut" result="blurOut2" type="matrix" values="0 0 0 0 0 0 0 0 0 0 0 0 0 0 0 0 0 0 .4 0"/><feOffset dx="8.0" dy="8.0" in="blurOut2" result="blurOut3"/><feBlend in="SourceGraphic" in2="blurOut3" mode="normal"/></filter></defs><g><!--MD5=[9d3b3d891db5d00c2140c2d0af48851f]
cluster contract--><polygon fill="#FFFFFF" filter="url(#f18vu36wnsl6ez)" points="32,12,160,12,174,56.9766,420,56.9766,420,314,32,314,32,12" style="stroke:#000000;stroke-width:3.0;"/><line style="stroke:#000000;stroke-width:3.0;" x1="32" x2="174" y1="56.9766" y2="56.9766"/><text fill="#000000" font-family="sans-serif" font-size="28" font-weight="bold" lengthAdjust="spacing" textLength="116" x="40" y="43.0703">contract</text><!--MD5=[12f64cc500376965fe0b76ae662c1a93]
cluster pricingplan--><polygon fill="#FFFFFF" filter="url(#f18vu36wnsl6ez)" points="468,25,642,25,656,69.9766,1016,69.9766,1016,646,468,646,468,25" style="stroke:#000000;stroke-width:3.0;"/><line style="stroke:#000000;stroke-width:3.0;" x1="468" x2="656" y1="69.9766" y2="69.9766"/><text fill="#000000" font-family="sans-serif" font-size="28" font-weight="bold" lengthAdjust="spacing" textLength="162" x="476" y="56.0703">pricingplan</text><!--MD5=[461026a38b737c4ce5e8254b9a577e21]
class Contract--><rect codeLine="3" fill="#FEFECE" filter="url(#f18vu36wnsl6ez)" height="199.6406" id="Contract" style="stroke:#A80036;stroke-width:3.0;" width="322" x="65" y="82"/><ellipse cx="169.5" cy="114" fill="#ADD1B2" rx="22" ry="22" style="stroke:#A80036;stroke-width:2.0;"/><path d="M174.4463,126.2861 Q173.2842,126.8838 172.0059,127.1826 Q170.7275,127.4814 169.3164,127.4814 Q164.3027,127.4814 161.6631,124.1777 Q159.0234,120.874 159.0234,114.6318 Q159.0234,108.373 161.6631,105.0693 Q164.3027,101.7656 169.3164,101.7656 Q170.7275,101.7656 172.0225,102.0645 Q173.3174,102.3633 174.4463,102.9609 L174.4463,108.4063 Q173.1846,107.2441 171.9976,106.7046 Q170.8105,106.165 169.5488,106.165 Q166.8594,106.165 165.4897,108.2983 Q164.1201,110.4316 164.1201,114.6318 Q164.1201,118.8154 165.4897,120.9487 Q166.8594,123.082 169.5488,123.082 Q170.8105,123.082 171.9976,122.5425 Q173.1846,122.0029 174.4463,120.8408 Z " fill="#000000"/><text fill="#000000" font-family="sans-serif" font-size="24" lengthAdjust="spacing" textLength="96" x="210.5" y="123.0703">Contract</text><line style="stroke:#A80036;stroke-width:3.0;" x1="67" x2="385" y1="146" y2="146"/><rect fill="none" height="12" style="stroke:#C82930;stroke-width:2.0;" width="12" x="81" y="162"/><text fill="#000000" font-family="sans-serif" font-size="22" lengthAdjust="spacing" textLength="176" x="105" y="175.2695">contractId: Long</text><rect fill="none" height="12" style="stroke:#C82930;stroke-width:2.0;" width="12" x="81" y="187.9102"/><text fill="#000000" font-family="sans-serif" font-size="22" lengthAdjust="spacing" textLength="238" x="105" y="201.1797">status: ContractStatus</text><rect fill="none" height="12" style="stroke:#C82930;stroke-width:2.0;" width="12" x="81" y="213.8203"/><text fill="#000000" font-family="sans-serif" font-size="22" lengthAdjust="spacing" textLength="270" x="105" y="227.0898">validThrough: DateRange</text><rect fill="none" height="12" style="stroke:#C82930;stroke-width:2.0;" width="12" x="81" y="239.7305"/><text fill="#000000" font-family="sans-serif" font-size="22" lengthAdjust="spacing" textLength="252" x="105" y="253">changeLogs: Contract[]</text><line style="stroke:#A80036;stroke-width:3.0;" x1="67" x2="385" y1="265.6406" y2="265.6406"/><!--MD5=[8d0c5a8d4e1cb26d66f2730a90a2ce43]
class PricingPlan--><rect codeLine="12" fill="#FEFECE" filter="url(#f18vu36wnsl6ez)" height="173.7305" id="PricingPlan" style="stroke:#A80036;stroke-width:3.0;" width="482" x="501" y="95"/><ellipse cx="671.5" cy="127" fill="#ADD1B2" rx="22" ry="22" style="stroke:#A80036;stroke-width:2.0;"/><path d="M676.4463,139.2861 Q675.2842,139.8838 674.0059,140.1826 Q672.7275,140.4814 671.3164,140.4814 Q666.3027,140.4814 663.6631,137.1777 Q661.0234,133.874 661.0234,127.6318 Q661.0234,121.373 663.6631,118.0693 Q666.3027,114.7656 671.3164,114.7656 Q672.7275,114.7656 674.0225,115.0645 Q675.3174,115.3633 676.4463,115.9609 L676.4463,121.4063 Q675.1846,120.2441 673.9976,119.7046 Q672.8105,119.165 671.5488,119.165 Q668.8594,119.165 667.4897,121.2983 Q666.1201,123.4316 666.1201,127.6318 Q666.1201,131.8154 667.4897,133.9487 Q668.8594,136.082 671.5488,136.082 Q672.8105,136.082 673.9976,135.5425 Q675.1846,135.0029 676.4463,133.8408 Z " fill="#000000"/><text fill="#000000" font-family="sans-serif" font-size="24" lengthAdjust="spacing" textLength="124" x="712.5" y="136.0703">PricingPlan</text><line style="stroke:#A80036;stroke-width:3.0;" x1="503" x2="981" y1="159" y2="159"/><rect fill="none" height="12" style="stroke:#C82930;stroke-width:2.0;" width="12" x="517" y="175"/><text fill="#000000" font-family="sans-serif" font-size="22" lengthAdjust="spacing" textLength="206" x="541" y="188.2695">pricingPlanId: Long</text><rect fill="none" height="12" style="stroke:#C82930;stroke-width:2.0;" width="12" x="517" y="200.9102"/><text fill="#000000" font-family="sans-serif" font-size="22" lengthAdjust="spacing" textLength="176" x="541" y="214.1797">contractId: Long</text><rect fill="none" height="12" style="stroke:#C82930;stroke-width:2.0;" width="12" x="517" y="226.8203"/><text fill="#000000" font-family="sans-serif" font-size="22" lengthAdjust="spacing" textLength="430" x="541" y="240.0898">bin: Set&lt;DistanceRangePricingElement&gt;</text><line style="stroke:#A80036;stroke-width:3.0;" x1="503" x2="981" y1="252.7305" y2="252.7305"/><!--MD5=[f1e2e753b5c3f5fc828e1891794f4d3d]
class DistanceRangePricingElement--><rect codeLine="18" fill="#FEFECE" filter="url(#f18vu36wnsl6ez)" height="212.1719" id="DistanceRangePricingElement" style="stroke:#A80036;stroke-width:3.0;" width="402" x="541" y="402"/><ellipse cx="571" cy="440.2656" fill="#ADD1B2" rx="22" ry="22" style="stroke:#A80036;stroke-width:2.0;"/><path d="M575.9463,452.5518 Q574.7842,453.1494 573.5059,453.4482 Q572.2275,453.7471 570.8164,453.7471 Q565.8027,453.7471 563.1631,450.4434 Q560.5234,447.1396 560.5234,440.8975 Q560.5234,434.6387 563.1631,431.335 Q565.8027,428.0313 570.8164,428.0313 Q572.2275,428.0313 573.5225,428.3301 Q574.8174,428.6289 575.9463,429.2266 L575.9463,434.6719 Q574.6846,433.5098 573.4976,432.9702 Q572.3105,432.4307 571.0488,432.4307 Q568.3594,432.4307 566.9897,434.564 Q565.6201,436.6973 565.6201,440.8975 Q565.6201,445.0811 566.9897,447.2144 Q568.3594,449.3477 571.0488,449.3477 Q572.3105,449.3477 573.4976,448.8081 Q574.6846,448.2686 575.9463,447.1064 Z " fill="#000000"/><text fill="#000000" font-family="sans-serif" font-size="24" font-style="italic" lengthAdjust="spacing" textLength="84" x="726" y="435.2031">«value»</text><text fill="#000000" font-family="sans-serif" font-size="24" lengthAdjust="spacing" textLength="338" x="599" y="463.4688">DistanceRangePricingElement</text><line style="stroke:#A80036;stroke-width:3.0;" x1="543" x2="941" y1="478.5313" y2="478.5313"/><rect fill="none" height="12" style="stroke:#C82930;stroke-width:2.0;" width="12" x="557" y="494.5313"/><text fill="#000000" font-family="sans-serif" font-size="22" lengthAdjust="spacing" textLength="304" x="581" y="507.8008">from: Distance 'not inclusive</text><rect fill="none" height="12" style="stroke:#C82930;stroke-width:2.0;" width="12" x="557" y="520.4414"/><text fill="#000000" font-family="sans-serif" font-size="22" lengthAdjust="spacing" textLength="232" x="581" y="533.7109">to: Distance 'inclusive</text><rect fill="none" height="12" style="stroke:#C82930;stroke-width:2.0;" width="12" x="557" y="546.3516"/><text fill="#000000" font-family="sans-serif" font-size="22" lengthAdjust="spacing" textLength="150" x="581" y="559.6211">step: Distance</text><rect fill="none" height="12" style="stroke:#C82930;stroke-width:2.0;" width="12" x="557" y="572.2617"/><text fill="#000000" font-family="sans-serif" font-size="22" lengthAdjust="spacing" textLength="216" x="581" y="585.5313">pricePerStep: Money</text><line style="stroke:#A80036;stroke-width:3.0;" x1="543" x2="941" y1="598.1719" y2="598.1719"/><!--MD5=[96170e203d5ff79c6d28e75aa4975d33]
link Contract to PricingPlan--><path codeLine="26" d="M387.24,182 C421.58,182 455.9,182 490.22,182 " fill="none" id="Contract-to-PricingPlan" style="stroke:#A80036;stroke-width:2.0;"/><polygon fill="#A80036" points="500.88,182,482.88,174,490.88,182,482.88,190,500.88,182" style="stroke:#A80036;stroke-width:2.0;"/><!--MD5=[f4ca706f1ac5e0d24313e549fa9af234]
reverse link PricingPlan to DistanceRangePricingElement--><path codeLine="27" d="M742,295.62 C742,330.06 742,367.84 742,401.76 " fill="none" id="PricingPlan-backto-DistanceRangePricingElement" style="stroke:#A80036;stroke-width:2.0;"/><polygon fill="#FFFFFF" points="742,269.44,734,281.44,742,293.44,750,281.44,742,269.44" style="stroke:#A80036;stroke-width:2.0;"/><!--MD5=[96561d57c26f3792d7d762dcd7c630f4]
@startuml

package contract {
  class Contract {
    - contractId: Long
    - status: ContractStatus
    - validThrough: DateRange
    - changeLogs: Contract[]
  }
}

package pricingplan {
  class PricingPlan {
    - pricingPlanId: Long
    - contractId: Long
    - bin: Set<DistanceRangePricingElement>
  }

  class DistanceRangePricingElement <<value>> {
    - from: Distance 'not inclusive
    - to: Distance 'inclusive
    - step: Distance
    - pricePerStep: Money
  }
}

Contract -> PricingPlan
PricingPlan o- - DistanceRangePricingElement

@enduml

PlantUML version 1.2021.01(Tue Feb 02 16:55:08 KST 2021)
(GPL source distribution)
Java Runtime: OpenJDK Runtime Environment
JVM: OpenJDK 64-Bit Server VM
Default Encoding: UTF-8
Language: ko
Country: KR
--></g></svg>